<svg xmlns="http://www.w3.org/2000/svg" width="400" height="340" viewBox="0 0 400 340" role="img" aria-labelledby="oscr-languages-light-t oscr-languages-light-d">
<title id="oscr-languages-light-t">Languages of the harvested scripts</title>
<desc id="oscr-languages-light-d">16,678 scripts kept as text, by language. Python: 7,718; MATLAB: 3,109; R: 1,193; Shell: 837; Jupyter: 768; JavaScript: 672; Perl: 610; Other: 1,771. Source: OSCR harvester database, 2026-09-26.</desc>
<style>text{font-family:system-ui, -apple-system, "Segoe UI", Roboto, "Helvetica Neue", Arial, sans-serif;fill:#0b0b0b}.title{font-size:15px;font-weight:600}.sub{font-size:12.5px;fill:#52514e}.cat{font-size:12.5px}.muted{fill:#52514e}.val{font-size:12px;font-variant-numeric:tabular-nums;font-feature-settings:'tnum'}.tick{font-size:11.5px;fill:#52514e;font-variant-numeric:tabular-nums;font-feature-settings:'tnum'}.foot{font-size:11px;fill:#6e6d68}.kl{font-size:13px;fill:#52514e}.kv{font-size:34px;font-weight:600;font-variant-numeric:tabular-nums;font-feature-settings:'tnum'}.ks{font-size:12px;fill:#52514e;font-variant-numeric:tabular-nums;font-feature-settings:'tnum'}</style>
<rect x="0.5" y="0.5" width="399" height="339" rx="10" fill="#ffffff" stroke="#d0d7de"/>
<text x="20" y="34" class="title">Languages of the harvested scripts</text>
<text x="20" y="53" class="sub">16,678 scripts kept as text, by language</text>
<text x="82.8" y="93.6" class="cat" text-anchor="end">Python</text>
<path d="M92.8,80.3H339.8Q343.8,80.3 343.8,84.3V93.8Q343.8,97.8 339.8,97.8H92.8Z" fill="#2a78d6"><title>Python: 7,718 scripts</title></path>
<text x="349.8" y="93.1" class="val">7,718</text>
<text x="82.8" y="121.7" class="cat" text-anchor="end">MATLAB</text>
<path d="M92.8,108.5H189.9Q193.9,108.5 193.9,112.5V121.9Q193.9,125.9 189.9,125.9H92.8Z" fill="#2a78d6"><title>MATLAB: 3,109 scripts</title></path>
<text x="199.9" y="121.2" class="val">3,109</text>
<text x="82.8" y="149.8" class="cat" text-anchor="end">R</text>
<path d="M92.8,136.6H127.5Q131.5,136.6 131.5,140.6V150Q131.5,154 127.5,154H92.8Z" fill="#2a78d6"><title>R: 1,193 scripts</title></path>
<text x="137.5" y="149.3" class="val">1,193</text>
<text x="82.8" y="177.9" class="cat" text-anchor="end">Shell</text>
<path d="M92.8,164.7H116Q120,164.7 120,168.7V178.2Q120,182.2 116,182.2H92.8Z" fill="#2a78d6"><title>Shell: 837 scripts</title></path>
<text x="126" y="177.4" class="val">837</text>
<text x="82.8" y="206.1" class="cat" text-anchor="end">Jupyter</text>
<path d="M92.8,192.8H113.7Q117.7,192.8 117.7,196.8V206.3Q117.7,210.3 113.7,210.3H92.8Z" fill="#2a78d6"><title>Jupyter: 768 scripts</title></path>
<text x="123.7" y="205.6" class="val">768</text>
<text x="82.8" y="234.2" class="cat" text-anchor="end">JavaScript</text>
<path d="M92.8,221H110.6Q114.6,221 114.6,225V234.4Q114.6,238.4 110.6,238.4H92.8Z" fill="#2a78d6"><title>JavaScript: 672 scripts</title></path>
<text x="120.6" y="233.7" class="val">672</text>
<text x="82.8" y="262.3" class="cat" text-anchor="end">Perl</text>
<path d="M92.8,249.1H108.6Q112.6,249.1 112.6,253.1V262.5Q112.6,266.5 108.6,266.5H92.8Z" fill="#2a78d6"><title>Perl: 610 scripts</title></path>
<text x="118.6" y="261.8" class="val">610</text>
<text x="82.8" y="290.4" class="cat muted" text-anchor="end">Other</text>
<path d="M92.8,277.2H146.3Q150.3,277.2 150.3,281.2V290.7Q150.3,294.7 146.3,294.7H92.8Z" fill="#b5b3ab"><title>Other: 1,771 scripts</title></path>
<text x="156.3" y="289.9" class="val">1,771</text>
<path d="M92.2,75L92.2,300" stroke="#a8a69e" stroke-width="1" fill="none"/>
<text x="20" y="326" class="foot">Source: OSCR harvester database, 2026-09-26</text>
</svg>
